# xmcd
#
# Track frame offsets:
#	150
#	15497
#	31547
#	47045
#	61742
#	80592
#	96290
#	109994
#	127289
#	148316
#	165404
#	180196
#	197881
#	212201
#	223237
#	238159
#	252315
#
# Disc length: 3618 seconds
#
# Revision: 0
# Processed by: cddbd v1.5.2PL0 Copyright (c) Steve Scherf et al.
# Submitted via: audiograbber 1.83.01
#
DISCID=f70e2011
DTITLE=Norah Jones - Feels Like Home 2
DYEAR=2004
DGENRE=Jazz
TTITLE0=Feelin The Same Way
TTITLE1=Cold Cold Heart
TTITLE2=The Nearness of You
TTITLE3=The Long Day Is Over
TTITLE4=Shoot The Moon
TTITLE5=Lone Star
TTITLE6=Painter Song
TTITLE7=Turn Me On
TTITLE8=I've Got to See You
TTITLE9=One Flight Down
TTITLE10=New York city
TTITLE11=Strange Transmissions
TTITLE12=Deceptively Yours
TTITLE13=All Your Love
TTITLE14=Heart Of Mine
TTITLE15=Things You Don't Have To Do
TTITLE16=New York City (Radio Edit)
EXTD=YEAR: 2004
EXTT0=
EXTT1=
EXTT2=
EXTT3=
EXTT4=
EXTT5=
EXTT6=
EXTT7=
EXTT8=
EXTT9=
EXTT10=
EXTT11=
EXTT12=
EXTT13=
EXTT14=
EXTT15=
EXTT16=
PLAYORDER=
